<?xml version="1.0" encoding="UTF-8"?>
<svg version="1.1" xmlns="http://www.w3.org/2000/svg" width="96" height="96">
<path d="M0 0 C2.60491411 3.39771405 2.43893626 6.83010556 2 11 C0.20437595 13.75329021 -1.05254922 15.52627461 -4 17 C-9.16062661 17.49941548 -9.16062661 17.49941548 -12 17 C-14.90799783 14.4555019 -15.90702057 13.04601863 -16.25 9.1875 C-16.1675 8.465625 -16.085 7.74375 -16 7 C-17.0725 7.639375 -18.145 8.27875 -19.25 8.9375 C-27.64061736 13.11803647 -42.1161507 13.9612831 -51 11 C-51.09796875 11.67804687 -51.1959375 12.35609375 -51.296875 13.0546875 C-52.09650113 18.03167082 -53.07549372 22.54151804 -55.0625 27.1875 C-58.18113878 34.59280707 -58.84191514 41.34103871 -56 49 C-51.69477815 55.71108112 -45.90514151 58.44542058 -38.375 60.3125 C-28.59646317 61.98237321 -17.61397475 61.2378015 -9 56 C-6.49898905 53.93089054 -4.42615578 51.9334749 -3 49 C-2.8015185 45.84858524 -2.8015185 45.84858524 -3 43 C-3.63502441 42.9498877 -4.27004883 42.89977539 -4.92431641 42.84814453 C-7.82522523 42.61482321 -10.72505632 42.37001416 -13.625 42.125 C-14.62402344 42.04636719 -15.62304688 41.96773437 -16.65234375 41.88671875 C-29.19293478 40.80706522 -29.19293478 40.80706522 -33 37 C-32.79953373 33.85936171 -32.54877905 31.72339057 -30.625 29.1875 C-24.50435236 24.71471903 -13.19717736 26.55890184 -6 27 C-2.41396623 27.60321914 0.69870236 28.49303823 4 30 C4.94875 30.4125 5.8975 30.825 6.875 31.25 C11.08743551 34.71906454 12.65632177 38.68972676 14 43.8125 C14.64326159 52.37282738 9.41850308 59.51339193 4.13671875 65.7421875 C-2.45750281 72.7101218 -11.41635656 78.38746195 -21.19140625 79.17700195 C-37.70773611 79.60385521 -50.14814106 78.46993862 -63 67 C-73.50321308 56.03782298 -76.52428161 45.45597262 -76.2734375 30.625 C-75.77333104 18.46399527 -69.95822491 8.40894719 -61.1875 0.1875 C-43.74979764 -14.14115465 -17.3489938 -15.03579462 0 0 Z " fill="#DA203E" transform="translate(80,13)"/>
</svg>
